<svg id="euaZjWHSc4r1" xmlns="http://www.w3.org/2000/svg" xmlns:xlink="http://www.w3.org/1999/xlink" viewBox="0 0 512 512" shape-rendering="geometricPrecision" text-rendering="geometricPrecision" project-id="db72b06a33e3447fb541bded28b671af" export-id="61d1f2069bb048d3bb545aab0c4fa5d9" cached="false"><g><path d="M0,0c1.326877.980843,2.64108,1.97924,3.9375,3c.560742.399609,1.121484.799219,1.699219,1.210938C9.835492,7.362661,13.030244,11.108547,14.9375,16c.585624,4.864674.553948,9.338155-1,14-.811905,5.799318.652144,9.050501,3.933594,13.644531C21.712501,48.0233,26.297447,51.507576,30.9375,55c-.33.66-.66,1.32-1,2-11.875177-.288998-20.903139-5.077903-30.557373-11.619873-5.427431-3.583616-11.054448-5.821681-17.165283-7.993408-5.095217-2.155903-8.346384-5.255387-11.777344-9.511719-3.517207-4.081198-3.517207-4.081198-8.5-5.875-3.224571.322457-5.927341.97578-9,2-3.357168,6.135515-3.332303,12.37358-1.914062,19.054688c6.240594,20.108581,27.925977,33.110844,44.036376,44.843505C1.974055,92.959862,8.50587,98.34369,14.9375,104c.879141.745078,1.758281,1.490156,2.664063,2.257813C33.82761,120.273501,46.143832,138.098151,47.875,159.9375c.793706,15.432151-4.22739,29.923672-14.4375,41.5625-1.478797,1.520907-2.976854,3.023509-4.5,4.5-.540117.549141-1.080234,1.098281-1.636719,1.664063-17.52797,16.512495-44.507021,21.979284-67.804687,21.542968C-68.072979,228.223499,-95.729364,219.15518,-116.0625,200c-1.754851-1.945917-3.375555-3.940759-5-6c3.675693,1.31876,6.916347,3.073014,10.264893,5.072021c6.31484,3.747277,12.617162,6.919255,19.547607,9.365479.983716.351431.983716.351431,1.987305.709961c19.89273,6.676935,43.158489,6.34773,62.133789-2.832275C-14.347422,199.713884,-4.415638,190.283198,0.8125,176.625c4.026197-14.167181,1.793868-27.996346-5.167969-40.835937-8.002562-13.075125-19.984278-24.05697-31.921875-33.515625-4.975796-4.06159-9.637896-8.461095-14.299804-12.875977-1.316839-1.238919-2.65363-2.456554-3.993164-3.670898C-63.461063,77.39342,-70.434657,66.665219,-74.0625,55c-.223008-.688359-.446016-1.376719-.675781-2.085937-3.556242-13.01536-1.598567-25.628707,4.300781-37.476563c6.487121-11.245401,16.671011-19.1581,29.273438-22.601562C-26.924912,-10.417609,-12.275029,-7.910119,0,0Z" transform="matrix(2.851749 0 0 2.033708 375.240444 31.600129)" fill="#e4b518" stroke="#e4b518"/><path d="M0,0c.66,0,1.32,0,2,0c.328711.81791.328711.81791.664063,1.652344C5.164332,7.598107,8.228627,12.775803,12,18c.70125.99,1.4025,1.98,2.125,3C29.600919,38.672816,54.11031,44.505989,75.935791,49.552734C91.531765,53.170465,106.146153,57.011167,119,67c.683203.50918,1.366406,1.018359,2.070313,1.542969c9.287735,7.43372,15.902601,18.795626,17.308593,30.652344C138.74828,109.275642,136.171478,117.958378,130,126c-.70125.969375-1.4025,1.93875-2.125,2.9375-9.171566,10.649053-23.66528,16.070441-37.371582,17.283447C73.981729,146.988223,58.737241,144.899692,44,137c-.961641-.491133-1.923281-.982266-2.914062-1.488281C19.379157,123.76089,4.566023,102.130555,-3,79c-7.17175-25.257259-7.584276-53.262205,2-78c.33-.33.66-.66,1-1Z" transform="matrix(2.324841-.224437 0.172054 1.782225 19.290659 205.911976)" fill="#e4b518" stroke="#e4b518"/></g></svg>
